<?xml version="1.0" standalone="no"?>
<!DOCTYPE svg PUBLIC "-//W3C//DTD SVG 20010904//EN"
 "http://www.w3.org/TR/2001/REC-SVG-20010904/DTD/svg10.dtd">
<svg version="1.0" xmlns="http://www.w3.org/2000/svg"
 width="803.000000pt" height="800.000000pt" viewBox="0 0 803.000000 800.000000"
 preserveAspectRatio="xMidYMid meet">

<g transform="translate(0.000000,800.000000) scale(0.100000,-0.100000)"
fill="#000000" stroke="none">
<path d="M3715 7429 c-730 -49 -1440 -309 -2003 -731 -725 -546 -1213 -1329
-1387 -2227 -47 -242 -59 -376 -59 -661 -1 -404 43 -702 161 -1093 255 -848
796 -1559 1543 -2027 641 -401 1447 -600 2187 -539 1221 100 2268 736 2879
1749 80 133 234 434 234 459 0 5 30 30 68 54 121 80 242 217 325 371 88 163
130 335 130 536 0 320 -117 629 -317 839 -168 176 -385 271 -617 271 l-107 0
-28 83 c-77 233 -223 444 -414 596 -53 43 -233 135 -303 155 -149 42 -394 60
-514 37 l-42 -8 -26 68 c-15 37 -48 110 -73 161 -234 462 -645 758 -1102 793
-232 17 -495 -48 -707 -176 -164 -99 -320 -241 -410 -375 -43 -63 -54 -81
-117 -200 l-38 -70 -81 23 c-276 80 -572 33 -820 -130 -304 -201 -492 -472
-623 -899 l-18 -58 -75 0 c-274 -1 -555 -164 -728 -423 -29 -42 -54 -74 -56
-69 -6 11 11 215 28 332 117 804 520 1530 1140 2054 291 246 568 413 925 555
713 285 1495 322 2220 106 588 -176 1155 -549 1550 -1020 239 -284 401 -552
560 -923 56 -130 83 -163 145 -181 89 -24 185 50 185 143 0 60 -123 349 -237
561 -72 132 -240 383 -349 520 -111 141 -417 445 -559 559 -133 105 -383 273
-520 348 -380 207 -812 352 -1220 408 -274 37 -487 45 -730 29z m690 -1379
c112 -28 284 -116 380 -192 89 -71 188 -179 257 -278 80 -115 182 -335 203
-438 17 -81 87 -120 177 -97 260 66 506 29 718 -107 112 -73 243 -235 311
-385 17 -35 44 -106 60 -156 17 -51 42 -111 55 -134 40 -69 63 -76 264 -77
159 -1 180 -4 230 -25 136 -56 250 -153 338 -286 90 -137 149 -324 159 -505
14 -257 -75 -494 -252 -674 -84 -86 -161 -129 -300 -168 -79 -22 -87 -22
-1000 -28 -1012 -6 -951 -2 -1020 -66 -40 -38 -118 -144 -111 -151 8 -8 1921
-24 1974 -16 l44 6 -32 -64 c-124 -246 -353 -553 -580 -779 -484 -481 -1099
-801 -1780 -924 -230 -41 -342 -51 -605 -51 -263 0 -367 9 -600 51 -925 168
-1721 707 -2210 1499 -75 121 -215 388 -215 410 0 10 28 0 89 -30 99 -50 227
-87 376 -110 84 -13 185 -14 650 -8 636 7 559 -10 612 137 26 69 30 92 20 98
-6 5 -91 7 -187 3 -368 -11 -972 -9 -1060 4 -138 21 -289 74 -376 133 -199
133 -316 393 -316 703 -1 378 215 718 521 822 73 25 198 31 290 13 94 -18 154
23 167 112 19 128 98 360 161 468 176 303 407 489 675 544 96 20 107 20 193 0
376 -86 619 -193 964 -423 29 -20 60 -40 70 -46 27 -17 273 -194 501 -362 211
-155 456 -322 562 -383 29 -17 126 -66 215 -110 166 -82 344 -142 503 -171
132 -24 454 -12 503 18 17 10 -89 98 -175 145 -79 45 -89 48 -157 48 -151 0
-378 67 -583 171 -159 81 -405 239 -612 393 -432 321 -390 290 -611 439 -93
63 -206 136 -250 162 -98 58 -372 195 -391 195 -35 0 -18 48 64 185 157 260
447 459 737 505 93 14 288 4 380 -20z"/>
<path d="M2566 4799 c-15 -12 -26 -30 -26 -44 0 -29 36 -65 64 -65 251 -1 435
-53 494 -140 43 -64 104 -79 147 -35 32 31 31 43 -7 101 -83 123 -300 204
-543 204 -88 0 -106 -3 -129 -21z"/>
<path d="M2156 4215 c-40 -21 -55 -44 -56 -85 0 -46 36 -86 93 -101 23 -6 94
-22 157 -35 63 -13 189 -42 280 -64 267 -64 557 -128 676 -150 305 -54 497
-142 640 -292 61 -63 132 -154 153 -195 28 -54 147 -49 176 7 21 41 19 55 -17
119 -65 115 -181 240 -302 325 -165 117 -313 168 -769 261 -94 20 -257 56
-362 80 -329 78 -623 145 -632 145 -4 0 -21 -7 -37 -15z"/>
<path d="M1423 3615 c-33 -23 -48 -79 -34 -126 17 -57 42 -68 172 -79 294 -26
379 -45 539 -121 168 -80 294 -168 590 -414 303 -252 495 -384 669 -460 184
-80 262 -94 558 -102 l232 -6 30 31 c43 43 44 107 2 154 l-29 32 -123 -3
c-268 -5 -484 34 -659 120 -134 66 -343 208 -482 329 -10 8 -43 35 -73 60 -31
25 -77 63 -103 86 -130 113 -318 248 -448 323 -185 106 -350 157 -572 176
-202 18 -243 18 -269 0z"/>
<path d="M6935 3399 c-11 -6 -33 -27 -48 -47 -45 -59 -146 -140 -222 -177
-142 -70 -124 -68 -781 -66 -519 3 -595 1 -621 -13 -35 -18 -43 -33 -43 -85 0
-26 7 -44 23 -59 l23 -22 605 -2 c654 -1 684 1 817 55 158 64 372 256 372 335
0 69 -65 111 -125 81z"/>
</g>
</svg>
